<svg width="184" height="184" viewBox="0 0 184 184" fill="none" xmlns="http://www.w3.org/2000/svg">
<rect width="184" height="184" rx="92" fill="#FAFAFA"/>
<g clip-path="url(#clip0_1_398)">
<path fill-rule="evenodd" clip-rule="evenodd" d="M92 90.7222C84.6976 90.7222 78.7778 84.8024 78.7778 77.5C78.7778 70.1976 84.6976 64.2778 92 64.2778C99.3024 64.2778 105.222 70.1976 105.222 77.5C105.222 84.8024 99.3024 90.7222 92 90.7222ZM75 77.5C75 68.1112 82.6112 60.5 92 60.5C101.389 60.5 109 68.1112 109 77.5C109 86.8888 101.389 94.5 92 94.5C82.6112 94.5 75 86.8888 75 77.5ZM92 69.9444C92.5316 69.9444 93.0119 70.164 93.3551 70.5174L99.0023 76.1646C99.74 76.9023 99.74 78.0983 99.0023 78.8359C98.2647 79.5736 97.0687 79.5736 96.331 78.8359L93.8889 76.3938V83.1667C93.8889 84.2099 93.0432 85.0556 92 85.0556C90.9568 85.0556 90.1111 84.2099 90.1111 83.1667V76.3938L87.669 78.8359C86.9313 79.5736 85.7353 79.5736 84.9977 78.8359C84.26 78.0983 84.26 76.9023 84.9977 76.1646L90.6449 70.5174C90.9882 70.164 91.4684 69.9444 92 69.9444Z" fill="black" fill-opacity="0.1"/>
</g>
<path d="M56.9235 120.5H54.9547L58.5393 110.318H60.8163L64.4057 120.5H62.437L59.7175 112.406H59.638L56.9235 120.5ZM56.9881 116.508H62.3574V117.989H56.9881V116.508ZM68.2687 120.634C67.6688 120.634 67.1318 120.48 66.6579 120.172C66.1839 119.864 65.8094 119.416 65.5343 118.83C65.2592 118.243 65.1217 117.53 65.1217 116.692C65.1217 115.843 65.2609 115.127 65.5393 114.544C65.821 113.957 66.2005 113.515 66.6778 113.217C67.155 112.915 67.687 112.764 68.2736 112.764C68.7211 112.764 69.089 112.84 69.3773 112.993C69.6657 113.142 69.8944 113.323 70.0634 113.535C70.2324 113.744 70.3634 113.941 70.4562 114.126H70.5307V110.318H72.3354V120.5H70.5655V119.297H70.4562C70.3634 119.482 70.2291 119.68 70.0535 119.888C69.8778 120.094 69.6458 120.27 69.3574 120.415C69.0691 120.561 68.7062 120.634 68.2687 120.634ZM68.7708 119.158C69.152 119.158 69.4768 119.055 69.7452 118.849C70.0137 118.641 70.2175 118.351 70.3567 117.979C70.4959 117.608 70.5655 117.176 70.5655 116.682C70.5655 116.188 70.4959 115.759 70.3567 115.394C70.2208 115.03 70.0187 114.746 69.7502 114.544C69.4851 114.342 69.1586 114.241 68.7708 114.241C68.3698 114.241 68.035 114.345 67.7665 114.554C67.4981 114.763 67.2959 115.051 67.16 115.419C67.0241 115.787 66.9562 116.208 66.9562 116.682C66.9562 117.159 67.0241 117.585 67.16 117.96C67.2992 118.331 67.503 118.624 67.7715 118.839C68.0433 119.052 68.3764 119.158 68.7708 119.158ZM77.087 120.634C76.4871 120.634 75.9502 120.48 75.4762 120.172C75.0023 119.864 74.6277 119.416 74.3527 118.83C74.0776 118.243 73.94 117.53 73.94 116.692C73.94 115.843 74.0792 115.127 74.3576 114.544C74.6393 113.957 75.0188 113.515 75.4961 113.217C75.9734 112.915 76.5054 112.764 77.092 112.764C77.5394 112.764 77.9073 112.84 78.1957 112.993C78.484 113.142 78.7127 113.323 78.8818 113.535C79.0508 113.744 79.1817 113.941 79.2745 114.126H79.3491V110.318H81.1538V120.5H79.3839V119.297H79.2745C79.1817 119.482 79.0475 119.68 78.8718 119.888C78.6962 120.094 78.4642 120.27 78.1758 120.415C77.8875 120.561 77.5245 120.634 77.087 120.634ZM77.5892 119.158C77.9703 119.158 78.2951 119.055 78.5636 118.849C78.8321 118.641 79.0359 118.351 79.1751 117.979C79.3143 117.608 79.3839 117.176 79.3839 116.682C79.3839 116.188 79.3143 115.759 79.1751 115.394C79.0392 115.03 78.837 114.746 78.5686 114.544C78.3034 114.342 77.9769 114.241 77.5892 114.241C77.1881 114.241 76.8534 114.345 76.5849 114.554C76.3164 114.763 76.1143 115.051 75.9784 115.419C75.8425 115.787 75.7745 116.208 75.7745 116.682C75.7745 117.159 75.8425 117.585 75.9784 117.96C76.1176 118.331 76.3214 118.624 76.5899 118.839C76.8617 119.052 77.1947 119.158 77.5892 119.158ZM87.9313 120.5H85.9626L89.5471 110.318H91.8241L95.4136 120.5H93.4448L90.7253 112.406H90.6458L87.9313 120.5ZM87.9959 116.508H93.3653V117.989H87.9959V116.508ZM102.539 112.864L99.8196 120.5H97.831L95.1115 112.864H97.0306L98.7855 118.536H98.8651L100.625 112.864H102.539ZM105.763 120.654C105.279 120.654 104.843 120.568 104.456 120.396C104.071 120.22 103.766 119.961 103.541 119.62C103.319 119.279 103.208 118.858 103.208 118.357C103.208 117.926 103.287 117.57 103.446 117.288C103.605 117.007 103.823 116.781 104.098 116.612C104.373 116.443 104.683 116.316 105.027 116.229C105.375 116.14 105.735 116.075 106.106 116.036C106.554 115.989 106.917 115.948 107.195 115.911C107.473 115.871 107.676 115.812 107.802 115.732C107.931 115.649 107.995 115.522 107.995 115.349V115.32C107.995 114.945 107.884 114.655 107.662 114.45C107.44 114.244 107.12 114.141 106.703 114.141C106.262 114.141 105.912 114.237 105.654 114.43C105.399 114.622 105.226 114.849 105.137 115.111L103.456 114.872C103.589 114.408 103.808 114.02 104.113 113.709C104.418 113.394 104.79 113.159 105.231 113.003C105.672 112.844 106.159 112.764 106.693 112.764C107.061 112.764 107.427 112.807 107.792 112.893C108.156 112.98 108.489 113.122 108.791 113.321C109.092 113.517 109.334 113.783 109.517 114.121C109.702 114.46 109.795 114.882 109.795 115.389V120.5H108.065V119.451H108.005C107.896 119.663 107.742 119.862 107.543 120.048C107.347 120.23 107.101 120.377 106.802 120.49C106.507 120.599 106.161 120.654 105.763 120.654ZM106.23 119.332C106.592 119.332 106.905 119.26 107.17 119.118C107.435 118.972 107.639 118.78 107.782 118.541C107.927 118.303 108 118.042 108 117.761V116.861C107.944 116.907 107.848 116.95 107.712 116.99C107.579 117.03 107.43 117.065 107.265 117.094C107.099 117.124 106.935 117.151 106.772 117.174C106.61 117.197 106.469 117.217 106.35 117.234C106.081 117.27 105.841 117.33 105.629 117.413C105.417 117.496 105.249 117.612 105.127 117.761C105.004 117.906 104.943 118.095 104.943 118.327C104.943 118.659 105.064 118.909 105.306 119.078C105.548 119.247 105.856 119.332 106.23 119.332ZM115.418 112.864V114.256H111.028V112.864H115.418ZM112.112 111.034H113.912V118.203C113.912 118.445 113.948 118.631 114.021 118.76C114.097 118.886 114.197 118.972 114.319 119.018C114.442 119.065 114.578 119.088 114.727 119.088C114.84 119.088 114.942 119.08 115.035 119.063C115.131 119.047 115.204 119.032 115.254 119.018L115.557 120.425C115.461 120.459 115.324 120.495 115.145 120.535C114.969 120.575 114.753 120.598 114.498 120.604C114.047 120.618 113.641 120.55 113.28 120.401C112.919 120.248 112.632 120.013 112.42 119.695C112.211 119.376 112.109 118.979 112.112 118.501V111.034ZM119.121 120.654C118.637 120.654 118.201 120.568 117.813 120.396C117.429 120.22 117.124 119.961 116.898 119.62C116.676 119.279 116.565 118.858 116.565 118.357C116.565 117.926 116.645 117.57 116.804 117.288C116.963 117.007 117.18 116.781 117.455 116.612C117.73 116.443 118.04 116.316 118.385 116.229C118.733 116.14 119.092 116.075 119.464 116.036C119.911 115.989 120.274 115.948 120.552 115.911C120.831 115.871 121.033 115.812 121.159 115.732C121.288 115.649 121.353 115.522 121.353 115.349V115.32C121.353 114.945 121.242 114.655 121.02 114.45C120.798 114.244 120.478 114.141 120.06 114.141C119.619 114.141 119.27 114.237 119.011 114.43C118.756 114.622 118.584 114.849 118.494 115.111L116.814 114.872C116.946 114.408 117.165 114.02 117.47 113.709C117.775 113.394 118.148 113.159 118.589 113.003C119.029 112.844 119.517 112.764 120.05 112.764C120.418 112.764 120.784 112.807 121.149 112.893C121.514 112.98 121.847 113.122 122.148 113.321C122.45 113.517 122.692 113.783 122.874 114.121C123.06 114.46 123.153 114.882 123.153 115.389V120.5H121.422V119.451H121.363C121.253 119.663 121.099 119.862 120.9 120.048C120.705 120.23 120.458 120.377 120.16 120.49C119.865 120.599 119.518 120.654 119.121 120.654ZM119.588 119.332C119.949 119.332 120.262 119.26 120.528 119.118C120.793 118.972 120.997 118.78 121.139 118.541C121.285 118.303 121.358 118.042 121.358 117.761V116.861C121.301 116.907 121.205 116.95 121.069 116.99C120.937 117.03 120.788 117.065 120.622 117.094C120.456 117.124 120.292 117.151 120.13 117.174C119.967 117.197 119.827 117.217 119.707 117.234C119.439 117.27 119.198 117.33 118.986 117.413C118.774 117.496 118.607 117.612 118.484 117.761C118.362 117.906 118.3 118.095 118.3 118.327C118.3 118.659 118.421 118.909 118.663 119.078C118.905 119.247 119.213 119.332 119.588 119.332ZM124.962 120.5V112.864H126.707V114.136H126.787C126.926 113.696 127.165 113.356 127.503 113.117C127.844 112.875 128.234 112.754 128.671 112.754C128.77 112.754 128.881 112.759 129.004 112.769C129.13 112.776 129.234 112.787 129.317 112.804V114.46C129.241 114.433 129.12 114.41 128.954 114.39C128.792 114.367 128.635 114.355 128.482 114.355C128.154 114.355 127.859 114.426 127.597 114.569C127.339 114.708 127.135 114.902 126.986 115.151C126.836 115.399 126.762 115.686 126.762 116.011V120.5H124.962Z" fill="black" fill-opacity="0.6"/>
<rect x="1" y="1" width="182" height="182" rx="91" stroke="black" stroke-opacity="0.08" stroke-width="2" stroke-dasharray="6 4"/>
<defs>
<clipPath id="clip0_1_398">
<rect width="34" height="34" fill="white" transform="translate(75 60.5)"/>
</clipPath>
</defs>
</svg>
