<svg width="44" height="44" viewBox="0 0 44 44" fill="none" xmlns="http://www.w3.org/2000/svg">
<g clip-path="url(#clip0_34_15)">
<path d="M33 0H11C4.92487 0 0 4.92487 0 11V33C0 39.0751 4.92487 44 11 44H33C39.0751 44 44 39.0751 44 33V11C44 4.92487 39.0751 0 33 0Z" fill="black"/>
<mask id="mask0_34_15" style="mask-type:luminance" maskUnits="userSpaceOnUse" x="8" y="8" width="28" height="28">
<path d="M35.2 8.80005H8.79999V35.2001H35.2V8.80005Z" fill="white"/>
</mask>
<g mask="url(#mask0_34_15)">
<path fill-rule="evenodd" clip-rule="evenodd" d="M22 8.80005C14.707 8.80005 8.79999 14.707 8.79999 22C8.79999 27.841 12.5785 32.7745 17.8255 34.5236C18.4855 34.639 18.733 34.243 18.733 33.8965C18.733 33.583 18.7165 32.5435 18.7165 31.438C15.4 32.0485 14.542 30.6295 14.278 29.887C14.1295 29.5075 13.486 28.3361 12.925 28.0226C12.463 27.775 11.803 27.1645 12.9085 27.1481C13.948 27.1315 14.6905 28.105 14.938 28.501C16.126 30.4975 18.0235 29.9365 18.7825 29.59C18.898 28.732 19.2445 28.1545 19.624 27.8245C16.687 27.4945 13.618 26.3561 13.618 21.307C13.618 19.8715 14.1295 18.6835 14.971 17.7595C14.839 17.4295 14.377 16.0765 15.103 14.2615C15.103 14.2615 16.2085 13.915 18.733 15.6145C19.789 15.3175 20.911 15.169 22.033 15.169C23.155 15.169 24.277 15.3175 25.333 15.6145C27.8575 13.8985 28.963 14.2615 28.963 14.2615C29.689 16.0765 29.227 17.4295 29.095 17.7595C29.9365 18.6835 30.448 19.8551 30.448 21.307C30.448 26.3726 27.3625 27.4945 24.4255 27.8245C24.904 28.237 25.3165 29.029 25.3165 30.2665C25.3165 32.032 25.3 33.451 25.3 33.8965C25.3 34.243 25.5475 34.6556 26.2075 34.5236C31.4215 32.7745 35.2 27.8245 35.2 22C35.2 14.707 29.293 8.80005 22 8.80005Z" fill="white"/>
</g>
</g>
<defs>
<clipPath id="clip0_34_15">
<rect width="44" height="44" fill="white"/>
</clipPath>
</defs>
</svg>
