<svg width="14" height="14" viewBox="0 0 14 14" fill="none" xmlns="http://www.w3.org/2000/svg">
<g clip-path="url(#clip0_1_391)">
<path fill-rule="evenodd" clip-rule="evenodd" d="M3.07247 10.7716C3.98369 11.6828 5.46108 11.6828 6.3723 10.7716L7.47225 9.67162C7.77599 9.3679 8.26846 9.3679 8.57218 9.67162C8.8759 9.97542 8.8759 10.4678 8.57218 10.7716L7.47225 11.8716C5.95354 13.3903 3.49123 13.3903 1.97253 11.8716C0.453819 10.3528 0.45382 7.89051 1.97253 6.37181L3.07247 5.27187C3.37621 4.96813 3.86867 4.96813 4.17241 5.27187C4.47615 5.57561 4.47615 6.06807 4.17241 6.37181L3.07247 7.47176C2.16125 8.383 2.16125 9.86039 3.07247 10.7716ZM9.67212 7.47176L10.772 6.37181C11.6833 5.46059 11.6833 3.9832 10.772 3.07198C9.86088 2.16075 8.38349 2.16075 7.47225 3.07198L6.3723 4.17192C6.06856 4.47567 5.5761 4.47567 5.27236 4.17192C4.96861 3.86819 4.96861 3.37572 5.27236 3.07198L6.3723 1.97203C7.891 0.453332 10.3533 0.453332 11.872 1.97203C13.3907 3.49075 13.3907 5.95305 11.872 7.47176L10.772 8.57169C10.4683 8.87541 9.97584 8.87541 9.67212 8.57169C9.36839 8.26797 9.36839 7.7755 9.67212 7.47176ZM9.12215 5.82184C9.42587 5.5181 9.42587 5.02564 9.12215 4.7219C8.81843 4.41815 8.32594 4.41815 8.02221 4.7219L4.72238 8.02172C4.41865 8.32544 4.41865 8.81793 4.72238 9.12166C5.02613 9.42538 5.51859 9.42538 5.82233 9.12166L9.12215 5.82184Z" fill="black"/>
</g>
<defs>
<clipPath id="clip0_1_391">
<rect width="14" height="14" fill="white"/>
</clipPath>
</defs>
</svg>
