<svg width="44" height="44" viewBox="0 0 44 44" fill="none" xmlns="http://www.w3.org/2000/svg">
<g clip-path="url(#clip0_44_10)">
<path d="M33 0H11C4.92487 0 0 4.92487 0 11V33C0 39.0751 4.92487 44 11 44H33C39.0751 44 44 39.0751 44 33V11C44 4.92487 39.0751 0 33 0Z" fill="#55ACEE"/>
<mask id="mask0_44_10" style="mask-type:luminance" maskUnits="userSpaceOnUse" x="8" y="11" width="28" height="22">
<path d="M35.124 11.2559H8.79999V32.6488H35.124V11.2559Z" fill="white"/>
</mask>
<g mask="url(#mask0_44_10)">
<path d="M35.124 13.7882C34.1556 14.2178 33.1147 14.508 32.0223 14.6386C33.1373 13.9702 33.9937 12.9119 34.397 11.6506C33.3532 12.2697 32.1974 12.7191 30.9672 12.9612C29.9821 11.9116 28.5786 11.2559 27.0252 11.2559C24.0427 11.2559 21.6244 13.6738 21.6244 16.6563C21.6244 17.0796 21.6722 17.4919 21.7644 17.8871C17.2758 17.6619 13.2963 15.5118 10.6326 12.2443C10.1677 13.0419 9.90134 13.9696 9.90134 14.9593C9.90134 16.8331 10.8548 18.4862 12.3039 19.4546C11.4186 19.4265 10.5859 19.1836 9.85778 18.7791C9.85716 18.8016 9.85716 18.8243 9.85716 18.8471C9.85716 21.4636 11.7188 23.6464 14.1894 24.1428C13.7363 24.2662 13.2592 24.3322 12.7666 24.3322C12.4187 24.3322 12.0804 24.2982 11.7505 24.2352C12.4378 26.3809 14.4323 27.9423 16.7957 27.9858C14.9473 29.4344 12.6187 30.2977 10.0883 30.2977C9.65237 30.2977 9.22249 30.2721 8.79999 30.2222C11.1901 31.7547 14.0288 32.6488 17.0788 32.6488C27.0126 32.6488 32.445 24.4194 32.445 17.2824C32.445 17.0483 32.4396 16.8155 32.4294 16.5837C33.4844 15.8224 34.4 14.8713 35.124 13.7882Z" fill="white"/>
</g>
</g>
<defs>
<clipPath id="clip0_44_10">
<rect width="44" height="44" fill="white"/>
</clipPath>
</defs>
</svg>
